/* XPM */
static char *kacaya64[] = {
/* columns rows colors chars-per-pixel */
"64 64 97 2 ",
"   c #12253B",
".  c #172B40",
"X  c #1A2E43",
"o  c #1D3246",
"O  c #213347",
"+  c #26384D",
"@  c #2A3D50",
"#  c #2F4154",
"$  c #324456",
"%  c #334558",
"&  c #3B4C5D",
"*  c #455566",
"=  c #4D5B6C",
"-  c #515F6F",
";  c #546272",
":  c #596776",
">  c #5D6B7A",
",  c #616F7D",
"<  c #F38401",
"1  c #F38806",
"2  c #F48D0E",
"3  c #F48E12",
"4  c #F49116",
"5  c #F59815",
"6  c #F4921B",
"7  c #F59C1E",
"8  c #F59927",
"9  c #F59A28",
"0  c #F7AF5E",
"q  c #015EA7",
"w  c #0360A7",
"e  c #0762A8",
"r  c #0A65AA",
"t  c #0B6BAD",
"y  c #146BAD",
"u  c #196EAF",
"i  c #1A6FB0",
"p  c #1B73B2",
"a  c #2274B2",
"s  c #667381",
"d  c #6A7784",
"f  c #6D7987",
"g  c #6F7B88",
"h  c #737F8B",
"j  c #75818E",
"k  c #7A8591",
"l  c #7E8994",
"z  c #659AC7",
"x  c #808B96",
"c  c #838E99",
"v  c #86919C",
"b  c #89939D",
"n  c #8D96A1",
"m  c #8E98A3",
"M  c #929CA6",
"N  c #97A0A9",
"B  c #9BA4AD",
"V  c #A4ACB4",
"C  c #ADB5BC",
"Z  c #B0B7BE",
"A  c #B2B8BF",
"S  c #FBD39B",
"D  c #B5BBC2",
"F  c #B8BEC4",
"G  c #BBC1C7",
"H  c #BEC3CA",
"J  c #9FC7E0",
"K  c #A0C7E0",
"L  c #C0C6CB",
"P  c #C4C9CE",
"I  c #C7CBD0",
"U  c #C9CED3",
"Y  c #CDD1D6",
"T  c #D1D5D9",
"R  c #D6DADE",
"E  c #D9DCDF",
"W  c #FDE6C6",
"Q  c #C6DDEC",
"!  c #DADEE1",
"~  c #DEE1E4",
"^  c #E4E4E4",
"/  c #E5E7E9",
"(  c #E6E8EA",
")  c #ECECEC",
"_  c #FEF7E5",
"`  c #FEF8E7",
"'  c #FEF9EB",
"]  c #EEEFF1",
"[  c #EAF2F5",
"{  c #EBF6FA",
"}  c #EEF8FB",
"|  c #F4F4F4",
" . c #FFFEF5",
".. c #F6F7F8",
"X. c #F4FBFD",
"o. c #FEFFFE",
"O. c None",
/* pixels */
"O.O.O.O.O.O.O.O.O.O.O.O.O.O.O.O.O.O.O.O.O.O.O.O.O.O.O.O.O.O.O.O.O.O.O.O.O.O.O.O.O.O.O.O.O.O.O.O.O.O.O.O.O.O.O.O.O.O.O.O.O.O.O.O.",
"O.O.O.O.O.O.O.O.O.O.O.O.O.O.O.O.O.O.O.O.O.O.O.O.O.O.O.O.O.o.o.o.o.o.o.O.O.O.O.O.O.O.O.O.O.O.O.O.O.O.O.O.O.O.O.O.O.O.O.O.O.O.O.O.",
"O.O.O.O.O.O.O.O.O.O.O.O.O.O.O.O.O.O.O.O.O.O.O.O.o.o.o.o.o.o.o.o.o.o.o.o.o.o.o.o.O.O.O.O.O.O.O.O.O.O.O.O.O.O.O.O.O.O.O.O.O.O.O.O.",
"O.O.O.O.O.O.O.O.O.O.O.O.O.O.O.O.O.O.O.O.O.o.o.o.o.o.o.o.o.o.o.o.o.o.o.o.o.o.o.o.o.o.o.O.O.O.O.O.O.O.O.O.O.O.O.O.O.O.O.O.O.O.O.O.",
"O.O.O.O.O.O.O.O.O.O.O.O.O.O.O.O.O.O.o.o.o.o.o.o.o.o.o.o.o.o.o.o.o.o.o.o.o.o.o.o.o.o.o.o.o.O.O.O.O.O.O.O.O.O.O.O.O.O.O.O.O.O.O.O.",
"O.O.O.O.O.O.O.O.O.O.O.O.O.O.O.O.o.o.o.o.o.o.o.o.o.o.o.o.o.o.o.o.o.o.o.o.o.o.o.o.o.o.o.o.o.o.o.O.O.O.O.O.O.O.O.O.O.O.O.O.O.O.O.O.",
"O.O.O.O.O.O.O.O.O.O.O.O.O.O.O.o.o.o.o.o.o.o.o.o.o.o.o.o.o.o.o.o.o.o.o.o.o.o.o.o.o.o.o.o.o.o.o.o.o.O.O.O.O.O.O.O.O.O.O.O.O.O.O.O.",
"O.O.O.O.O.O.O.O.O.O.O.O.O.o.o.o.o.o.o.o.o.o.o.o.o.o.o.o.o.o.o.o.o.o.o.o.o.o.o.o.o.o.o.o.o.o.o.o.o.o.O.O.O.O.O.O.O.O.O.O.O.O.O.O.",
"O.O.O.O.O.O.O.O.O.O.O.O.o.o.o.o.o.o.o.o.o.o.o.o.o.o.o.o.o.o.o. . .o.o.o.o.o.o.o.o.o.o.o.o.o.o.o.o.o.o.O.O.O.O.O.O.O.O.O.O.O.O.O.",
"O.O.O.O.O.O.O.O.O.O.O.o.o.o.o.o.o.o.o.o.o.o.o.o.o.o.o.o.o.o.o.8 7 o.o.o.o.o.o.o.o.o.o.o.o.o.o.o.o.o.o.o.o.O.O.O.O.O.O.O.O.O.O.O.",
"O.O.O.O.O.O.O.O.O.O.o.o.o.o.o.o.o.o.o.o.o.o.o.o.o.o.o.o.o.o.8 5 5 9 o.o.o.o.o.o.o.o.o.o.o.o.o.o.o.o.o.o.o.o.O.O.O.O.O.O.O.O.O.O.",
"O.O.O.O.O.O.O.O.O.o.o.o.o.o.o.o.o.o.o.o.o.o.o.o.o.o.o.o. .6 <  . .< 6  .o.o.o.o.o.o.o.o.o.o.o.o.o.o.o.o.o.o.o.O.O.O.O.O.O.O.O.O.",
"O.O.O.O.O.O.O.O.o.o.o.o.o.o.o.o.o.o.o.o.o.o.o.o.o.o.o. .6 < _ o.o._ < 6  .o.o.o.o.o.o.o.o.o.o.o.o.o.o.o.o.o.o.O.O.O.O.O.O.O.O.O.",
"O.O.O.O.O.O.O.o.o.o.o.o.o.o.o.o.o.o.o.o.o.o.o.o.o.o. .6 < _ o.o.o.o._ < 6  .o.o.o.o.o.o.o.o.o.o.o.o.o.o.o.o.o.o.O.O.O.O.O.O.O.O.",
"O.O.O.O.O.O.O.o.o.o.o.o.o.o.o.o.o.o.o.o.o.o.o.o.o. .4 < ` o.o.....o.o._ < 4  .o.o.o.o.o.o.o.o.o.o.o.o.o.o.o.o. .o.O.O.O.O.O.O.O.",
"O.O.O.O.O.O.o.o.o.o.o.o.o.o.o.o.o.o.o.o.o.o.o.o. .3 < ' o.o...F D ..o.o._ < 4  .o.o.o.o.o.o.o.o.o.o.o.o.o.o.X.o.....O.O.O.O.O.O.",
"O.O.O.O.O.o.o.o.o.o.o.o.o.o.o.o.o.o.o.o.o.o.o. .3 < ' o.o...Z ( ( Z ..o.o.` < 3  .o.o.o.o.o.o.o.o.o.o.o.o.o... .....O.O.O.O.O.O.",
"O.O.O.O.O.o.o.o.o.o.o.o.o.o.o.o.o.o.o.o.o.o. .3 < ' o.o...Z ~ o.o.! Z | o.o.' < 4  .o.o.o.o.o.o.o.o.o.o.o.o.o...o.....O.O.O.O.O.",
"O.O.O.O.o.o.o.o.o.o.o.o.o.o.o.o.o.o.o.o.o. .3 < ' o.o.| Z ~ o.o.o.o.~ Z ..o.o.' < 3  .o.o.o.o.o.o.o.o.o.o.o.o.........O.O.O.O.O.",
"O.O.O.O.o.o.o.o.o.o.o.o.o.o.o.o.o.o.o.o. .3 1 ' o.o.| D ~ o.o.o.o.o.o.~ C ..o.o.' < 3  .o.o.o.o.o.o.o.o.o.o...o.....| ..O.O.O.O.",
"O.O.O.o.o.o.o.o.o.o.o.o.o.o.o.o.o.o.o. .2 1 ' o.o.| Z ~ o.o.o.o.o.o.o.o.~ Z ..o.o.' 1 2  .o.o.o.o.o.o.o.o.o...X. .| | | O.O.O.O.",
"O.O.O.o.o.o.o.o.o.o.o.o.o.o.o.o.o.o.W < 1 ' o.o.) A ~ o.o.o.o.o.o.o.o.o.o.~ C ) o.o.' 1 < W o.o.o.o.o.o.o.o.o. ...| | | | O.O.O.",
"O.O.O.o.o.o.o.o.o.o.o.o.o.o.o.o.o.o.S 0 ' o.o.o.! ^ o.o.o.o.o.o.o.o.o.o.o.o.~ ! o.o.o.' 0 S o.o.o.o.o.o.o.o.........| | ] O.O.O.",
"O.O.o.o.o.o.o.o.o.o.o.o.o.o.o.o.o.o.o.o.o.o.o.o.o.o.o.o.o.o.o.o.o.o.o.o.o.o.o.o.o.o.o.o.o.o.o.o.o.o.o.o.o.o. .X...| | ] | O.O.O.",
"O.O.o.o.o.o.o.o.o.o.o.o.o.o.o.o.o.o.o.o.o.o.o.o.o.o.o.o.o.o.o.o.o.o.o.o.o.o.o.o.o.o.o.o.o.o.o.o.o.o.o.o.o.o.o.....| | | ) O.O.O.",
"O.O.o.o.o.o.o.o.o.o.o.o.o.o.o.o.o.o.o.o.o.o.o.o.o.o.o.o.o.o.o.o.o.o.o.o.o.o.o.o.o.o.o.o.o.o.o.o.o.o.o.o.o.o. .o...| | ) ) ) O.O.",
"O.O.o.o.o.o.o.o.o.o.o.o.o.o.o.o.o.o.o.o.o.o.o.o.o.o.o.o.o.o.o.o.o.o.o.o.o.o.o.o.o.o.o.o.o.o.o.o.o.o.o.o.o.o.......| | | ) ) O.O.",
"O.O.o.o.o.o.o.o.o.o.o.o.o.o.~ T ] o.U ! o.o.o.o.o.o.o.o.o.G U o.o.o.o.o.o.o.^ T ] o./ T ..o.o.o.o.o.o.o.o.o.o.o...| | ) ] ] O.O.",
"O.o.o.o.o.o.o.o.o.o.o.o.o.o.B @ ..U o P o.o.; g o.o.o.U k B > h o.o.N & o.o.I   P o.k * ..o.Z % o.o.o.o.o.o.o...' | | ) ) ) O.O.",
"O.o.o.o.o.o.o.o.o.o.o.o.o.o.U f o.g I o.o.( = : X.o.E - T o...D o.o.m O U o.o.h k o.j U o.o.B . L o.o.o.o.o.......| | ) ) ) O.O.",
"O.o.o.o.o.o.o.o.o.o.o.o.o.o.Y j s Z o.o.o.N H b C o.j l o.o.o.o.o.Y C V f o.o..., c m o.o.E V Z s o.o.o.o.o. .....| | ) ) ( ) O.",
"O.o.o.o.o.o.o.o.o.o.o.o.o.o.! * * V o.o.o.f ) m , o.> M o.o.o.o.o.b N ) = o.o.o.H X ] o.o.M b ..* ..o.o.o.o.o...| | ) ) ) ( ) O.",
"O.o.o.o.o.o.o.o.o.o.o.o.o.o.Y d o.* P o.! ; B l = o.m ; o.o.o.o.o.f j V & I o.o./ s o.o.o.j g V & D o.o.o.o.X...| | ) ) ) ) ^ O.",
"O.o.o.o.o.o.o.o.o.o.o.o.o.o.C # o.G + T , l o.o.& v  .* m ] D M V - o.o.j % ..o.F @ ( o.V * o.X.b @ ..o.o.o.o...| ] ) ) ^ ^ ) O.",
"O.o.o.o.o.o.o.o.o.o.o.o.o.o.D h R o.B M b F o.o.m x o.] l M m H V n o.o.F f / o.Z j P o.B c o.o.L d R o.o.o. ...| ] ) ) ^ ^ O.O.",
"O.o.o.o.o.o.o.o.o.o.o.o.o.o.o.o.o.o.o.o.o.o.o.o.o.o.o.o.o...o.o.o.o.o.o.o.o.o.o.o.o.o.o.o.o.o.o.o.o.o.o.o.o.o...| ] ) ( ^ ( O.O.",
"O.O.o.o.o.o.o.o.o.o.o.o.o.o.o.o.o.o.o.o.o.o.o.o.o.o.o.o.o.o.o.o.o.o.o.o.o.o.o.o.o.o.o.o.o.o.o.o.o.o.o.o.o.o.....| ) ) ) ^ ^ O.O.",
"O.O.o.o.o.o.o.o.o.o.o.o.o.o.o.o.o.o.o.o.o.o.o.o.o.o.o.o.o.o.o.o.o.o.o.o.o.o.o.o.o.o.o.o.o.o.o.o.o.o.o.o.o.o. .| | ) ( ^ ^ ^ O.O.",
"O.O.o.o.o.o.o.o.o.o.o.o.o.o.o.o.o.o.o.o.o.o.o.o.o.o.o.o.o.o.o.o.o.o.o.o.o.o.o.o.o.o.o.o.o.o.o.o.o.o.o.o.o.o...| ) ) ( ^ ^ ^ O.O.",
"O.O.o.o.o.o.o.o.o.o.o.o.o.o.o.o.o.o.o.o.o.o.o.o.o.o.o.o.o.o.o.o.o.o.o.o.o.o.o.o.o.o.o.o.o.o.o.o.o.o.o.o.......] ) ^ ^ ^ ^ O.O.O.",
"O.O.o.o.o.o.o.o.o.o.o.o.o.o.o.o.o.o.J z X.o.o.o.! / o.o.o.o.o.o.o.o.o.o.o.o.~ ! o.o.o.X.z J o.o.o.o.o.o.....| | ) ^ ^ ^ ^ O.O.O.",
"O.O.O.o.o.o.o.o.o.o.o.o.o.o.o.o.o.o.Q q r X.o.o.( Z ~ o.o.o.o.o.o.o.o.o.o.~ Z ) o.o.X.r q Q o.o.o.o.o.o...' | ) ) ^ ^ ^ ^ O.O.O.",
"O.O.O.o.o.o.o.o.o.o.o.o.o.o.o.o.o.o.o.X.r r X.o.o.| D ~ o.o.o.o.o.o.o.o.! Z ..o.o.X.r t X.o.o.o.o.o.o. .....| ) ^ ^ ^ ^ O.O.O.O.",
"O.O.O.O. ...o.o.o.o.o.o.o.o.o.o.o.o.o.o.X.y r } o.o.| Z ~ o.o.o.o.o.o.~ Z | o.o.} e y X.o.o.o.o.o.o.o.....| ) ) ^ ^ ^ ^ O.O.O.O.",
"O.O.O.O.X...o.o.o.o.o.o.o.o.o.o.o.o.o.o.o.X.y r } o.o.| Z ~ o.o.o.o.! Z | o.o.} e y X.o.o.o.o.o.o.o.o...| ) ^ ^ ^ ^ ^ ^ O.O.O.O.",
"O.O.O.O. .........o.o. .o.o.o.o.o.o.o.o.o.o.X.y e } o.o.| Z ~ o.o.~ Z | o.o.} r y X.o.o.o.o.o.o.o.....| | ) ^ ^ ^ ^ ^ O.O.O.O.O.",
"O.O.O.O.O. .......o. .o.o.o.o.o.o.o.o.o.o.o.o.X.y w } o.o...Z ( ( Z | o.o.} e y X.o.o.o.o.o.o.o. .....| ) ( ^ ^ ^ ^ ^ O.O.O.O.O.",
"O.O.O.O.O.O.............o...o.o.o.o.o.o.o.o.o.o.o.y e } o.o...D Z ..o.o.{ e y X.o.o.o.o.o.o.o.o.o...| ) ^ ^ ^ ^ ^ ^ O.O.O.O.O.O.",
"O.O.O.O.O.O...| ........ . .o.o.o.o.o.o.o.o.o.o.o.X.u e { o.o.....o.o.{ w y X.o.o.o.o.o.o.o.o...| | ] ) ^ ^ ~ ^ ^ O.O.O.O.O.O.O.",
"O.O.O.O.O.O.O...| | | | ......o...o.o.o.o.o.o.o.o.o.o.u w { o.o.o.o.{ w i o.o.o.o.o.o.o.o.o...' | ) ( ^ ^ ^ ~ ^ ^ O.O.O.O.O.O.O.",
"O.O.O.O.O.O.O.O.] | | | | | ....o.o.o.o.o.o.o.o.o.o.o.X.i w { o.o.{ q u o.o.o.o.o.o.o.o.....| | ) ) ^ ^ ^ ^ ^ ^ O.O.O.O.O.O.O.O.",
"O.O.O.O.O.O.O.O.| ] ] | | | ...... .....o.o.o.o.o.o.o.o.o.i q o.o.q i o.o.o.o.o.o.o... .....| ) ( ^ ^ ^ ^ ^ ^ O.O.O.O.O.O.O.O.O.",
"O.O.O.O.O.O.O.O.O.| ) | ] ] | | ' ........ .o.o.o.o.o.o.o.o.a p p p o.o.o.o.o.o.........| ) ) ( ^ ^ ^ ^ ^ ^ O.O.O.O.O.O.O.O.O.O.",
"O.O.O.O.O.O.O.O.O.O.] ] ) ] ) ] ) | ..............o.o.o.o.o.o.t t o.o.o.o. .........| ] ) ( ^ ^ ^ ^ ^ ^ ^ O.O.O.O.O.O.O.O.O.O.O.",
"O.O.O.O.O.O.O.O.O.O.O.] | ) ) ) ] | ] ] | ..' | ...... .....o.[ [ o...........' | ) ) ) ^ ^ ^ ^ ^ ^ ^ ^ O.O.O.O.O.O.O.O.O.O.O.O.",
"O.O.O.O.O.O.O.O.O.O.O.O.) ) ) ) ) ) ) ] ] ] | | | | ..| ...... . .| | ..| | ) ) ) ( ( ^ ^ ~ ^ ^ ^ ^ ^ O.O.O.O.O.O.O.O.O.O.O.O.O.",
"O.O.O.O.O.O.O.O.O.O.O.O.O.O.) ) ( ) ^ ) ) ) ) ) ) ) ) | | ) | ) ] ] ) ) ) ) ) ^ ^ ^ ^ ^ ^ ^ ^ ^ ^ ^ O.O.O.O.O.O.O.O.O.O.O.O.O.O.",
"O.O.O.O.O.O.O.O.O.O.O.O.O.O.O.( ( ( ^ ) ) ^ ) ) ) ) ) ) ) ) ) ) ) ) ( ( ) ^ ^ ^ ~ ~ ^ ^ ^ ^ ^ ^ ^ O.O.O.O.O.O.O.O.O.O.O.O.O.O.O.",
"O.O.O.O.O.O.O.O.O.O.O.O.O.O.O.O.O.( ( ^ ^ ^ ^ ^ ^ ) ) ^ ^ ^ ^ ( / / ^ ^ ^ ^ ^ ^ ^ ^ ^ ^ ^ ^ ^ O.O.O.O.O.O.O.O.O.O.O.O.O.O.O.O.O.",
"O.O.O.O.O.O.O.O.O.O.O.O.O.O.O.O.O.O.O./ ^ ^ ^ ^ ^ ^ ^ ^ ^ ^ ^ ~ ^ ^ ^ ^ ^ ^ ^ ^ ^ ^ ^ ^ ^ O.O.O.O.O.O.O.O.O.O.O.O.O.O.O.O.O.O.O.",
"O.O.O.O.O.O.O.O.O.O.O.O.O.O.O.O.O.O.O.O.O.^ ^ ^ ^ ^ ^ ^ ^ ^ ^ ^ ^ ^ ^ ^ ^ ^ ^ ^ ^ ^ ^ O.O.O.O.O.O.O.O.O.O.O.O.O.O.O.O.O.O.O.O.O.",
"O.O.O.O.O.O.O.O.O.O.O.O.O.O.O.O.O.O.O.O.O.O.O.O.^ ^ ^ ^ ^ ^ ^ ^ ^ ^ ^ ^ ^ ^ ^ ^ O.O.O.O.O.O.O.O.O.O.O.O.O.O.O.O.O.O.O.O.O.O.O.O.",
"O.O.O.O.O.O.O.O.O.O.O.O.O.O.O.O.O.O.O.O.O.O.O.O.O.O.O.O.O.^ ^ ^ ~ ^ ^ O.O.O.O.O.O.O.O.O.O.O.O.O.O.O.O.O.O.O.O.O.O.O.O.O.O.O.O.O.",
"O.O.O.O.O.O.O.O.O.O.O.O.O.O.O.O.O.O.O.O.O.O.O.O.O.O.O.O.O.O.O.O.O.O.O.O.O.O.O.O.O.O.O.O.O.O.O.O.O.O.O.O.O.O.O.O.O.O.O.O.O.O.O.O."
};
