/* XPM */
static char *_fd022f6b2bc4bd58f5f2fa1f31ebde8[] = {
/* columns rows colors chars-per-pixel */
"32 32 194 2 ",
"   c #616E7D",
".  c #63717F",
"X  c #64717F",
"o  c #F6A22A",
"O  c #F6A32B",
"+  c #F7A32C",
"@  c #F6A531",
"#  c #F7A531",
"$  c #F6A633",
"%  c #F6A735",
"&  c #F7AE46",
"*  c #F7AE47",
"=  c #6E7A87",
"-  c #3788BD",
";  c #3789BD",
":  c #3889BE",
">  c #3C8CBF",
",  c #3E8CBF",
"<  c #3E8DC0",
"1  c #408DC1",
"2  c #418FC1",
"3  c #438FC2",
"4  c #4491C2",
"5  c #4C95C4",
"6  c #7EB3D5",
"7  c #808B96",
"8  c #838E99",
"9  c #8A949F",
"0  c #8B959F",
"q  c #8C96A0",
"w  c #8F99A2",
"e  c #919BA5",
"r  c #959FA8",
"t  c #969FA8",
"y  c #9AA2AC",
"u  c #A3ABB4",
"i  c #A7AEB7",
"p  c #A8AFB7",
"a  c #A9B0B8",
"s  c #ABB2BA",
"d  c #ACB3BB",
"f  c #ADB4BB",
"g  c #ADB4BC",
"h  c #B0B7BE",
"j  c #B2B9BF",
"k  c #FACE8F",
"l  c #FBD399",
"z  c #FBD39B",
"x  c #FBD39C",
"c  c #FBD49C",
"v  c #FBD49D",
"b  c #FBD7A3",
"n  c #FBD9A7",
"m  c #FBD9A9",
"M  c #FBDAA9",
"N  c #FBDAAA",
"B  c #FBDAAB",
"V  c #FCDCAE",
"C  c #FCDFB5",
"Z  c #85B7D7",
"A  c #B4BAC1",
"S  c #B5BBC2",
"D  c #B7BDC4",
"F  c #96C1DD",
"G  c #94C1DE",
"H  c #9AC3DE",
"J  c #BBC1C7",
"K  c #BDC3C9",
"L  c #9EC7E1",
"P  c #A2C8E2",
"I  c #A4C9E1",
"U  c #A8CDE4",
"Y  c #ABCFE6",
"T  c #ACCFE6",
"R  c #B6D5E8",
"E  c #C0C5CB",
"W  c #C1C6CC",
"Q  c #C1C7CC",
"!  c #C7CCD1",
"~  c #C9CED3",
"^  c #CBCFD4",
"/  c #CED2D6",
"(  c #D1D5D9",
")  c #D2D5D9",
"_  c #D3D6DB",
"`  c #D3D7DB",
"'  c #D5D8DD",
"]  c #D9DCDF",
"[  c #DADCDF",
"{  c #DADDDF",
"}  c #D9DCE0",
"|  c #DBDEE0",
" . c #DBDFE2",
".. c #DDE0E3",
"X. c #DEE0E3",
"o. c #D6E7F2",
"O. c #DEECF4",
"+. c #E1E1E1",
"@. c #E2E2E2",
"#. c gray89",
"$. c #E0E2E4",
"%. c #E0E2E5",
"&. c #E0E3E6",
"*. c #E1E3E6",
"=. c #E1E4E6",
"-. c #E1E4E7",
";. c #E4E4E4",
":. c gray90",
">. c #E6E6E6",
",. c #E7E7E7",
"<. c #E4E6E8",
"1. c #E5E7E8",
"2. c #E6E8EA",
"3. c #E7E9EB",
"4. c #E7E9EC",
"5. c gray91",
"6. c #E9E9E9",
"7. c #EAEAEA",
"8. c gray92",
"9. c #E8EAEC",
"0. c #E8EBEC",
"q. c #EBEDEE",
"w. c #EBEDEF",
"e. c #ECECEC",
"r. c gray93",
"t. c #ECEEEF",
"y. c #EEEEEE",
"u. c #EFEFEF",
"i. c #FEF6EA",
"p. c #FFF9EB",
"a. c #FEF8EE",
"s. c #EDEFF1",
"d. c #EEEFF1",
"f. c #E8EDF4",
"g. c #E6EEF8",
"h. c #E6EFFA",
"j. c #EFF0F1",
"k. c #EFF0F2",
"l. c #E7F0FA",
"z. c #E7F0FC",
"x. c #EBF1FA",
"c. c #E8F1FD",
"v. c #E9F3FF",
"b. c gray94",
"n. c #F1F1F1",
"m. c #F1F2F3",
"M. c gray95",
"N. c #F3F3F3",
"B. c #F6F2F0",
"V. c #F6F3F1",
"C. c #F2F3F5",
"Z. c #F3F4F5",
"A. c #F3F5F6",
"S. c #F4F4F4",
"D. c gray96",
"F. c #F4F5F6",
"G. c #F5F5F7",
"H. c #F6F6F6",
"J. c #F6F6F7",
"K. c gray97",
"L. c #FFFDF2",
"P. c #FEFAF5",
"I. c #FFFBF5",
"U. c #FFFDF6",
"Y. c #F1F7FA",
"T. c #F2F7FB",
"R. c #F6F7F8",
"E. c #F7F8F8",
"W. c #F4F9FB",
"Q. c #F7FBFD",
"!. c #F8F8F8",
"~. c #F9F9F9",
"^. c #F9FAFA",
"/. c gray98",
"(. c #FAFBFB",
"). c #FBFBFB",
"_. c #FFFFF9",
"`. c #FFFFFA",
"'. c #F8FBFE",
"]. c #FBFCFC",
"[. c #FBFDFE",
"{. c gray99",
"}. c #FDFDFD",
"|. c #FFFFFC",
" X c #FFFEFD",
".X c #FFFFFD",
"XX c #FCFDFE",
"oX c #FDFEFF",
"OX c #FEFEFE",
"+X c #FFFFFE",
"@X c #FEFEFF",
"#X c #FEFFFF",
"$X c gray100",
"%X c None",
/* pixels */
"%X%X%X%X%X%X%X%X%X%X%X%X%X%X$X$X$X$X%X%X%X%X%X%X%X%X%X%X%X%X%X%X",
"%X%X%X%X%X%X%X%X%X%X%X$X$X$X$X$X$X$X$X$X$X%X%X%X%X%X%X%X%X%X%X%X",
"%X%X%X%X%X%X%X%X%X$X$X$X$X$X$X$X$X$X$X$X$X$X$X%X%X%X%X%X%X%X%X%X",
"%X%X%X%X%X%X%X$X$X$X$X$X$X$X$X$X$X$X$X$X$X$X$X$X$X%X%X%X%X%X%X%X",
"%X%X%X%X%X%X$X$X$X$X$X$X$X$X$XC N $X$X$X$X$X$X$X$X$X%X%X%X%X%X%X",
"%X%X%X%X%X$X$X$X$X$X$X$X$X$XV & & b $X$X$X$X$X$X$X$X$X%X%X%X%X%X",
"%X%X%X%X$X$X$X$X$X$X$X$X$XN + _.$X@ v $X$X$X$X$X$X$X$X$X%X%X%X%X",
"%X%X%X$X$X$X$X$X$X$X$X$XN O p.z.f.U.@ x $X$X$X$X$X$X$X$X^.%X%X%X",
"%X%X%X$X$X$X$X$X$X$X$XN O L.c.&.=.z._.@ l $X$X$X$X$X$X^.!.%X%X%X",
"%X%X$X$X$X$X$X$X$X$Xn O L.c.X.$X$X&.g._.@ l $X$X$X$X$X).!.S.%X%X",
"%X%X$X$X$X$X$X$X$Xl @ i.z.X.$X$X$X$X&.g.P.% k $X$X$X$X^.^.S.%X%X",
"%X$X$X$X$X$X$X$X$XN a.$Xs.$X$X$X$X$X$Xk.$XP.N $X$X$X$X^.S.b.b.%X",
"%X$X$X$X$X$X$X$X$X$X$X$X$X$X$X$X$X$X$X$X$X$X$X$X$X$X$X).!.b.b.%X",
"%X$X$X$X$X$X$Xs.^.3.$X$X$X$X3.=.$X$X$X9.$Xw.].$X$X$X$X).S.b.e.%X",
"$X$X$X$X$X$X$Xf i W $X0 $X) D E $Xw Z.A A J $Xt  .$X$X^.S.b.8.7.",
"$X$X$X$X$X$X$Xa = $X&.. / A $X$Xs.X E $X7 s.S.  E $X$X$XS.e.7.7.",
"$X$X$X$X$X$X$Xu q K h i y g ^ =.t g q ^.e -.A a 8 w.$X^.S.e.7.;.",
"$X$X$X$X$X$X$X) S.! ' $X_ e.! ) ^ $X' b._ 2.} $X) 2.$X^.b.e.;.#.",
"%X$X$X$X$X$X$X$X$X$X$X$X$X$X$X$X$X$X$X$X$X$X$X$X$X$X$X^.b.7.#.%X",
"%X$X$X$X$X$X$X$X$X$X$X$X$X$X$X$X$X$X$X$X$X$X$X$X$X$X$Xb.8.#.#.%X",
"%X$X$X$X$X$X$X$X$XZ H $X1.Z.$X$X$X$XS.1.$XI 6 $X$X$X$Xb.;.#.#.%X",
"%X%X$X$X$X$X$X$X$XO.2 F $X[ C.$X$XS.] $XI > o.$X$X$XS.e.;.#.%X%X",
"%X%X^.^.).$X$X$X$X$X'.2 L $X[ K.^.] $XY ; Y.$X$X$X^.b.;.#.#.%X%X",
"%X%X%XS.!.).'.$X$X$X$X$X> L $X . .$XY - W.$X$X$X$Xb.;.#.#.%X%X%X",
"%X%X%XS.S.!.^.).$X$X$X$X^.> F $X$XP : Y.$X$X$X$Xb.7.#.#.#.%X%X%X",
"%X%X%X%XN.N.N.!.^.$X$X$X$X$X4 I R < Y.$X$X$X^.b.7.#.#.#.%X%X%X%X",
"%X%X%X%X%Xb.b.b.S.^.^.$X$X$X$X5 2 '.$X$X^.N.e.;.#.#.#.%X%X%X%X%X",
"%X%X%X%X%X%X8.8.e.e.b.S.S.R.$X^.S.$XS.b.e.,.#.#.#.#.%X%X%X%X%X%X",
"%X%X%X%X%X%X%X7.7.;.e.e.e.b.e.B.N.8.7.,.#.#.#.#.#.%X%X%X%X%X%X%X",
"%X%X%X%X%X%X%X%X%X;.;.;.;.;.;.#.:.#.+.#.#.#.#.%X%X%X%X%X%X%X%X%X",
"%X%X%X%X%X%X%X%X%X%X%X#.#.#.#.#.#.#.#.#.#.%X%X%X%X%X%X%X%X%X%X%X",
"%X%X%X%X%X%X%X%X%X%X%X%X%X%X#.#.#.#.%X%X%X%X%X%X%X%X%X%X%X%X%X%X"
};
